<svg width="16" height="22" viewBox="0 0 16 22" fill="none" xmlns="http://www.w3.org/2000/svg">
<g clip-path="url(#clip0_1009_1720)">
<path d="M6.43211 0.658691L8.62969 0.658691C9.01779 0.658691 9.32525 0.976636 9.32525 1.37798L9.32525 14.5232C9.32525 14.6378 9.41094 14.7264 9.49158 14.6066L12.2184 11.7034C12.4956 11.3854 12.914 11.3854 13.2214 11.7034L14.8091 13.3139C15.1166 13.6319 15.1166 14.0593 14.8343 14.3512L8.04501 21.3981C7.73755 21.7421 7.34944 21.7421 7.04198 21.3981L0.257711 14.3512C-0.0195061 14.0645 -0.049748 13.6319 0.257711 13.3139L1.87061 11.7034C2.17807 11.3854 2.59138 11.3854 2.87364 11.7034L5.57021 14.6066C5.6559 14.7212 5.73654 14.6378 5.73654 14.5232L5.73654 1.37798C5.73654 0.976636 6.044 0.658691 6.43211 0.658691Z" fill="#101111"/>
</g>
<defs>
<clipPath id="clip0_1009_1720">
<rect width="21" height="15" fill="white" transform="translate(15.0391 0.658691) rotate(90)"/>
</clipPath>
</defs>
</svg>
